<svg xmlns="http://www.w3.org/2000/svg" xmlns:xlink="http://www.w3.org/1999/xlink" width="500" zoomAndPan="magnify" viewBox="0 0 375 374.999991" height="500" preserveAspectRatio="xMidYMid meet" version="1.0"><defs><clipPath id="993a680ba4"><path d="M 129 36 L 349.128906 36 L 349.128906 374.15625 L 129 374.15625 Z M 129 36 " clip-rule="nonzero"/></clipPath><clipPath id="da347ec131"><path d="M 25.878906 0.65625 L 245 0.65625 L 245 335 L 25.878906 335 Z M 25.878906 0.65625 " clip-rule="nonzero"/></clipPath></defs><path fill="#ffffff" d="M 185.25 131.121094 C 170.191406 132.1875 157.980469 144.300781 156.800781 159.355469 C 155.78125 172.332031 162.820312 183.777344 173.441406 189.238281 L 173.441406 229.890625 C 173.441406 237.652344 179.734375 243.945312 187.5 243.945312 C 195.261719 243.945312 201.554688 237.652344 201.554688 229.890625 L 201.554688 189.238281 C 211.496094 184.125 218.296875 173.78125 218.296875 161.839844 C 218.296875 144.085938 203.277344 129.839844 185.25 131.121094 " fill-opacity="1" fill-rule="nonzero"/><g clip-path="url(#993a680ba4)"><path fill="#ffffff" d="M 249.675781 36.761719 L 129.335938 105.765625 L 230.492188 78.402344 L 303.46875 120.539062 C 303.46875 181.425781 279.226562 238.550781 238.480469 281.554688 C 206.597656 315.203125 150.339844 349.078125 150.339844 349.078125 C 162.039062 358.203125 174.4375 366.578125 187.5 374.121094 C 287.511719 316.378906 349.125 209.664062 349.125 94.179688 L 249.675781 36.761719 " fill-opacity="1" fill-rule="nonzero"/></g><g clip-path="url(#da347ec131)"><path fill="#ffffff" d="M 150.199219 294.617188 C 100.738281 251.074219 71.527344 187.890625 71.527344 120.539062 L 71.671875 120.457031 L 232.796875 27.019531 L 187.5 0.867188 L 25.875 94.179688 C 25.875 186.878906 65.582031 273.921875 132.972656 334.53125 C 132.972656 334.53125 199.695312 299.699219 244.082031 253.246094 L 150.199219 294.617188 " fill-opacity="1" fill-rule="nonzero"/></g></svg>